<svg xmlns="http://www.w3.org/2000/svg" version="1.1" xmlns:xlink="http://www.w3.org/1999/xlink" xmlns:svgjs="http://svgjs.com/svgjs" width="16" height="16"><svg version="1.1" id="SvgjsSvg1001" xmlns="http://www.w3.org/2000/svg" xmlns:xlink="http://www.w3.org/1999/xlink" x="0px" y="0px" viewBox="0 0 16 16" style="enable-background:new 0 0 16 16;" xml:space="preserve">
<g id="SvgjsG1000">
	<path d="M14.2,1.9L14.2,1.9l-2.5,10.1c0,0-1.1-0.9-2.4-1.9l1.3-1.2c3-2.6-0.4-6.3-2.7-4l0,0c-2.3-2.2-5.6,1.5-2.7,4l0.7,0.7l1.3-1
		L6.7,7.9c-2.1-1.7,0-3.4,1.2-1.6C7.9,6.5,8,6.6,8,6.6l0,0c0-0.1,0.1-0.1,0.1-0.2C9.3,4.6,11.4,6.3,9.3,8c-0.4,0.3-2.7,2.2-2.7,2.2
		l0,0l-2.2,1.8L1.8,1.9H0L3.3,15c0,0,2.6-2.1,4.7-3.8c2.1,1.7,4.7,3.8,4.7,3.8L16,1.9H14.2z"></path>
</g>
</svg><style>@media (prefers-color-scheme: light) { :root { filter: none; } }
@media (prefers-color-scheme: dark) { :root { filter: invert(100%); } }
</style></svg>