<svg xmlns="http://www.w3.org/2000/svg" width="178.766" height="319.998" viewBox="0 0 178.766 319.998"><g data-name="Group 487" fill="#fff"><path data-name="Path 125" d="M11.891 319.932c-12.358-20.727-8.968-53.743-8.569-83.367C9.5 221.95 9.965 204.014 9.5 185.214c.332-.332.664-.731 1-1.063a19.746 19.746 0 0 1 2.325-1.794 14.342 14.342 0 0 1 2.392-1.329c.4-.2.8-.332 1.2-.531a2.361 2.361 0 0 0 .6-.266c.2-.066.4-.066.6-.133.731-.2 1.461-.332 2.059-.465.6-.066 1.2-.066 1.661-.133.93-.066 1.461-.066 1.461-.066s-.531-.066-1.461-.133a16.579 16.579 0 0 1-1.661-.133q-1 .1-2.192.2c-.2 0-.4.066-.6.066a1.94 1.94 0 0 1-.6.133c-.4.133-.864.2-1.329.332a15.377 15.377 0 0 0-2.724 1.063 27.209 27.209 0 0 0-2.657 1.528c-.2-6.577-.465-13.22-.6-19.73v-1a2.068 2.068 0 0 0 .6-.465l.2-.2s.266-.4.8-1.063a32.59 32.59 0 0 1 2.392-2.657 20.781 20.781 0 0 1 1.727-1.661c.664-.531 1.262-1.2 1.993-1.794s1.461-1.2 2.259-1.727c.8-.6 1.661-1.063 2.524-1.594s1.794-.864 2.657-1.329c.93-.266 1.794-.664 2.724-.93a20.323 20.323 0 0 1 2.657-.465 15.4 15.4 0 0 1 2.458-.066c.731.066 1.461.133 2.059.2.6.133 1.129.266 1.528.4.864.266 1.4.4 1.4.4s-.465-.2-1.329-.531a12.281 12.281 0 0 0-1.528-.6c-.6-.133-1.329-.332-2.059-.531-.8-.2-1.661-.133-2.524-.266a13.94 13.94 0 0 0-2.857.133 27.483 27.483 0 0 0-3.056.6c-1 .332-2.059.6-3.056 1a23.177 23.177 0 0 0-2.923 1.329c-.93.465-1.86 1-2.724 1.528s-1.661 1.063-2.392 1.594-1.461 1.063-2.059 1.528c-.531.465-1 .864-1.461 1.2.864-27.635 10.762-47.232 29.5-60.253a75.491 75.491 0 0 1 23.052-10.3c.133.066.266.066.4.133.93.332 2.259.8 3.787 1.4a88.514 88.514 0 0 1 11.16 5.182 40.191 40.191 0 0 1 9.9 7.241 11.558 11.558 0 0 1 1.461 1.794 10.475 10.475 0 0 1 .93 1.528 3.435 3.435 0 0 1 .465 1.063 1.028 1.028 0 0 1 .133.4 2.141 2.141 0 0 1-.133-.4 6.36 6.36 0 0 0-.332-1.129 10.635 10.635 0 0 0-.731-1.661 19 19 0 0 0-1.262-1.993 29.407 29.407 0 0 0-3.986-4.384 56.257 56.257 0 0 0-5.248-4.252 91.24 91.24 0 0 0-10.254-6.397c15.279-3.388 32.219-4.384 48.893-6.112a80.1 80.1 0 0 0 21.989-5.182 2.386 2.386 0 0 0 1.594.864h.332a13.734 13.734 0 0 1 1.528-.066c1-.066 2.392-.133 4.052-.133a91.6 91.6 0 0 1 12.29.531 38.493 38.493 0 0 1 11.891 2.923 13.54 13.54 0 0 1 1.993 1.063 17.039 17.039 0 0 1 1.461 1.063c.4.332.664.6.864.8l.266.266a1.474 1.474 0 0 0-.266-.332c-.6-.066-.8-.4-1.2-.8a12.505 12.505 0 0 0-1.329-1.262 10.89 10.89 0 0 0-1.921-1.323 28.284 28.284 0 0 0-5.314-2.524 62.074 62.074 0 0 0-6.51-1.926 98.973 98.973 0 0 0-12.489-2.059c-.531-.066-1-.066-1.461-.133 7.573-4.849 12.555-12.223 11.16-23.317-.068 30.359-43.516 27.965-69.355 26.902 25.709-10.5 51.152-21.59 68.623-41.785-7.639 7.242-16.608 12.755-26.307 17.342 0-.066 0-.066.066-.133a16.442 16.442 0 0 0 .4-1.926c.066-.664.2-1.329.266-2.059a11.379 11.379 0 0 0 .066-2.126c0-.731-.066-1.4-.133-2.126a17.808 17.808 0 0 0-.332-1.993c-.133-.664-.332-1.262-.465-1.794a18.542 18.542 0 0 0-1.2-2.857c-.2-.332-.4-.664-.531-.93a5.71 5.71 0 0 0-.465-.8 7.381 7.381 0 0 1 .266.864c.066.266.2.6.332 1a7.836 7.836 0 0 1 .266 1.329 9.952 9.952 0 0 1 .266 1.594 15.156 15.156 0 0 1 .133 1.794 17.407 17.407 0 0 1-.066 1.86 19.169 19.169 0 0 1-.266 1.926 9.529 9.529 0 0 1-.465 1.86 13.189 13.189 0 0 1-.6 1.727c-.266.531-.465 1.063-.664 1.528-.266.465-.465.93-.731 1.329-.465.8-.93 1.461-1.2 1.86-.133.2-.266.332-.332.465l-.133.133C85.962 67.029 39.726 71.945 15.014 102.765c3.322-9.9 8.437-19.4 11.426-30.226l.2-.2a1.166 1.166 0 0 0 .266-.332.822.822 0 0 0 .133-.2c.066-.066.133-.266.266-.465a15 15 0 0 1 1.328-1.788c.266-.332.664-.731 1-1.129a11.027 11.027 0 0 1 1.262-1.2 12.219 12.219 0 0 1 1.461-1.129c.531-.332 1-.731 1.594-1.063a14.271 14.271 0 0 1 1.727-.93c.6-.332 1.129-.465 1.727-.731a17.156 17.156 0 0 1 1.727-.531 13.606 13.606 0 0 1 1.594-.332c.465-.066.93-.133 1.329-.2a5.37 5.37 0 0 0 1.063-.066h.93s-.332-.066-.93-.133c-.266-.066-.664-.133-1.063-.2s-.864-.066-1.4-.133a6.939 6.939 0 0 0-1.661 0 17.5 17.5 0 0 0-1.86.133c-.664.133-1.329.2-1.993.4a12.035 12.035 0 0 0-2.059.6c-.664.2-1.329.531-1.993.8s-1.262.664-1.86.93a11.557 11.557 0 0 1-1.2.731c1.661-10.363.93-22.188-5.314-36.6 5.514 16.741 4.451 29.429.731 40.523a2.039 2.039 0 0 0-.531 1.594c-4.845 13.413-9.163 23.909-20.257 43.377-.066.063-2.524 2.654-2.524 2.654v203.079h11.758Z"/><path data-name="Path 126" d="M43.645 59.788c4.451 1 8.835 2.259 13.485 2.192 6.71 0 12.888-4.451 15.811-10.363a27.776 27.776 0 0 1-11.559 2.657c-5.912 0-11.758-1.262-17.6-.2-4.119.731-8.038 3.189-11.227 5.779 3.583-1.394 7.503-.862 11.09-.065Z"/><path data-name="Path 127" d="M72.942 48.162a9.678 9.678 0 0 1-3.919-.531c-1.4-.4-2.724-.93-4.119-1.4a29.247 29.247 0 0 0-4.119-1.2c-5.381-1.063-10.7-.6-15.213 2.724a27.653 27.653 0 0 0-6.643 6.984c6.643-3.72 14.416-1.661 21.59-1.727a24.3 24.3 0 0 0 14.81-5.315 12.717 12.717 0 0 1-2.387.465Z"/><path data-name="Path 128" d="M0 65.102c2.989.664 6.112.664 9.1 1.2a17.02 17.02 0 0 1 6.975 2.923 11.7 11.7 0 0 0-8.835-8.3A29.3 29.3 0 0 0 0 60.784"/><path data-name="Path 129" d="M0 70.018a12.5 12.5 0 0 0 7.706 2.059 12.227 12.227 0 0 0 2.724-.332c.93-.133 1.794-.332 2.724-.465a8 8 0 0 1 2.524.066 13.912 13.912 0 0 1 1.528.531A15.377 15.377 0 0 0 8.437 66.9C5.713 66.364 2.79 66.364 0 65.7"/><path data-name="Path 130" d="M100.249 27.37c1.063 7.374 6.909 13.485 13.884 15.811a30.56 30.56 0 0 1-4.717-12.29c-.864-6.51-.4-13.153-2.524-19.464-1.466-4.385-4.721-8.305-8.043-11.427 1.993 3.654 2.059 8.1 1.727 12.157-.327 5.049-1.063 10.097-.327 15.213Z"/><path data-name="Path 131" d="M118.845 33.478a36.7 36.7 0 0 0 .731-4.717c.332-6.112-1-11.891-5.381-16.342a31.181 31.181 0 0 0-8.703-6.241c5.182 6.776 4.052 15.611 5.248 23.517a26.972 26.972 0 0 0 8.171 15.545 17.741 17.741 0 0 1-.864-2.657 10.83 10.83 0 0 1 0-4.384 30.436 30.436 0 0 1 .798-4.721Z"/><path data-name="Path 132" d="M55.669 127.68c3.654-3.587 7.44-6.909 10.23-11.227 4.052-6.244 3.654-14.681-.066-21.059a30.522 30.522 0 0 1-4.517 12.356c-3.587 5.447-8.3 10.164-10.895 16.342-1.794 4.252-1.926 9.367-1.461 13.951.93-4.118 3.786-7.572 6.709-10.363Z"/><path data-name="Path 133" d="M63.707 90.745c-.332.864-.664 1.727-1.063 2.591a10.56 10.56 0 0 1-2.857 3.322c-1.2 1.063-2.524 1.993-3.787 2.989a41.138 41.138 0 0 0-3.654 3.122c-4.318 4.384-7.042 9.632-6.71 15.877a31.477 31.477 0 0 0 2.458 10.43c.531-8.5 7.241-14.415 11.493-21.191a27.1 27.1 0 0 0 4.12-17.14Z"/><path data-name="Path 134" d="M157.375 60.452a17.994 17.994 0 0 0-7.175 5.452c2.325-1.4 5.182-1.461 7.772-1.4 3.255.133 6.51.465 9.765-.066a13.105 13.105 0 0 0 9.833-9.234 19.609 19.609 0 0 1-7.772 3.255c-4.186.664-8.438.532-12.423 1.993Z"/><path data-name="Path 135" d="M174.314 52.813c-1-.133-2.059-.332-3.056-.465a15.377 15.377 0 0 0-3.056-.332 13.3 13.3 0 0 0-10.363 3.787 19.037 19.037 0 0 0-3.787 5.713c4.252-3.454 9.9-2.923 14.947-3.853a17.386 17.386 0 0 0 9.765-5.58 8.328 8.328 0 0 1-1.661.6 5.608 5.608 0 0 1-2.789.13Z"/><path data-name="Path 136" d="M40.258 172.924c-1.329-4.517-5.115-8.437-9.832-9.234-3.255-.6-6.51-.266-9.765-.066-2.591.133-5.447 0-7.772-1.4a19.293 19.293 0 0 0 7.175 5.447c3.986 1.461 8.237 1.329 12.423 2.059a18.232 18.232 0 0 1 7.771 3.194Z"/><path data-name="Path 137" d="M30.957 176.042a23.867 23.867 0 0 0 3.056-.332 22.559 22.559 0 0 1 3.056-.465 5.686 5.686 0 0 1 2.79.133c.6.2 1.129.4 1.661.6a17.386 17.386 0 0 0-9.765-5.58c-5.049-.93-10.762-.4-14.947-3.853a21.927 21.927 0 0 0 3.787 5.713c2.789 2.92 6.442 3.916 10.362 3.784Z"/><path data-name="Path 138" d="M0 34.477c3.122.664 6.51 1 9.632 1.528A19.609 19.609 0 0 1 17.4 39.26c-1.329-4.517-5.115-8.437-9.832-9.234A28.932 28.932 0 0 0 0 29.827"/><path data-name="Path 139" d="M0 40.523a13.629 13.629 0 0 0 8.1 1.926 23.868 23.868 0 0 0 3.056-.332 22.556 22.556 0 0 1 3.056-.465 5.686 5.686 0 0 1 2.79.133c.6.2 1.129.4 1.661.6A16.6 16.6 0 0 0 8.9 36.807c-2.923-.531-5.979-.6-8.9-1.2"/><path data-name="Path 140" d="M136.317 28.698c-1.723 3.189-2.192 7.175-2.123 10.762 1-3.122 3.521-5.58 5.979-7.573 3.122-2.524 6.311-4.849 8.769-7.972 3.587-4.584 3.919-11.16 1.461-16.408a23.224 23.224 0 0 1-4.451 9.3c-3.191 3.986-7.244 7.308-9.635 11.891Z"/><path data-name="Path 141" d="M132.995 24.048a23.528 23.528 0 0 0 1.2 8.3c1.063-6.577 6.643-10.7 10.5-15.678a21.2 21.2 0 0 0 4.376-12.95c-.332.664-.664 1.329-1 1.926a8.434 8.434 0 0 1-2.458 2.392c-1 .731-2.126 1.4-3.189 2.059a25.01 25.01 0 0 0-3.056 2.126c-3.716 3.056-6.24 6.975-6.373 11.825Z"/><path data-name="Path 142" d="M133.261 83.902c-4.119-.4-8.437.93-12.157 2.524 3.72-.332 7.374 1.2 10.563 2.857 3.986 2.126 7.839 4.451 12.29 5.647 6.377 1.727 13.419-.93 17.8-5.779a27.77 27.77 0 0 1-11.692-.465c-5.71-1.529-10.961-4.248-16.804-4.784Z"/><path data-name="Path 143" d="M158.969 84.434c-1.2-.731-2.392-1.594-3.521-2.392a32.726 32.726 0 0 0-3.587-2.259c-4.849-2.458-10.031-3.322-15.213-1.4a28.5 28.5 0 0 0-8.171 4.916c7.307-1.794 14.15 2.192 21.059 3.986a23.978 23.978 0 0 0 15.545-1.2 15.332 15.332 0 0 1-2.458-.2 8.827 8.827 0 0 1-3.654-1.451Z"/><g data-name="Group 478"><path data-name="Path 144" d="M29.097 39.327c2.458-1.461 5.447-1.594 8.237-1.461 3.454.133 6.909.531 10.363-.133 4.982-.864 8.968-4.982 10.43-9.832a19.677 19.677 0 0 1-8.237 3.454c-4.384.731-8.9.6-13.153 2.126a20.647 20.647 0 0 0-7.64 5.846Z"/><path data-name="Path 145" d="M59.456 24.712c-.6.266-1.2.465-1.794.664a7.57 7.57 0 0 1-2.989.133c-1.063-.133-2.126-.332-3.255-.531a25.638 25.638 0 0 0-3.255-.4c-4.185-.133-8.038.93-10.961 4.052a21.929 21.929 0 0 0-4.053 6.047c4.451-3.654 10.5-3.122 15.877-4.119a18.1 18.1 0 0 0 10.43-5.846Z"/></g><path data-name="Path 146" d="M161.428 38.131c3.122 1.129 6.444 1.063 9.7 1.594a14.44 14.44 0 0 1 6.045 2.591 10.285 10.285 0 0 0-7.706-7.241 32.622 32.622 0 0 0-7.64-.066 11.059 11.059 0 0 1-6.046-1.063 16.487 16.487 0 0 0 5.647 4.185Z"/><path data-name="Path 147" d="M158.836 37.268a14.568 14.568 0 0 0 2.989 4.451 10.494 10.494 0 0 0 8.1 2.989 14.64 14.64 0 0 0 2.392-.266l2.392-.4a6.087 6.087 0 0 1 2.192.066 10.543 10.543 0 0 1 1.329.465 13.437 13.437 0 0 0-7.64-4.318c-3.982-.662-8.432-.263-11.754-2.987Z"/><path data-name="Path 148" d="M93.069 46.701a15.367 15.367 0 0 1 5.314 3.919 10.286 10.286 0 0 0-5.779-8.835 30.792 30.792 0 0 0-7.374-1.86 11.114 11.114 0 0 1-5.646-2.458 14.8 14.8 0 0 0 4.451 5.447c2.79 1.794 6.049 2.458 9.034 3.787Z"/><path data-name="Path 149" d="M90.744 51.285a14.792 14.792 0 0 0 2.392.332c.8.066 1.594.066 2.392.2a5.988 5.988 0 0 1 2.126.6c.4.266.8.531 1.129.8a13.73 13.73 0 0 0-6.377-6.045c-3.654-1.661-8.1-2.325-10.629-5.713a16.968 16.968 0 0 0 1.794 5.049 10.359 10.359 0 0 0 7.173 4.777Z"/><path data-name="Path 150" d="M83.039 136.715c2.79-2.724 5.647-5.248 7.772-8.5 3.056-4.783 2.724-11.16-.066-16.01a21.656 21.656 0 0 1-3.454 9.367c-2.724 4.185-6.311 7.772-8.237 12.423a21.934 21.934 0 0 0-1.063 10.563c.663-3.126 2.856-5.717 5.048-7.843Z"/><path data-name="Path 151" d="M89.151 108.615a16.711 16.711 0 0 1-.8 1.926 8.039 8.039 0 0 1-2.192 2.524c-.93.8-1.926 1.528-2.857 2.259a22.857 22.857 0 0 0-2.724 2.325c-3.255 3.322-5.314 7.307-5.049 12.024a22.935 22.935 0 0 0 1.86 7.905c.4-6.444 5.447-10.961 8.769-16.076a20.639 20.639 0 0 0 2.993-12.887Z"/><g data-name="Group 479"><path data-name="Path 152" d="M14.416 51.949a13.63 13.63 0 0 1 5.713 2.392 9.819 9.819 0 0 0-7.241-6.842 32.389 32.389 0 0 0-7.175-.064 10.57 10.57 0 0 1-5.713-1 13.992 13.992 0 0 0 5.248 3.986c2.989 1.129 6.112.996 9.168 1.528Z"/><path data-name="Path 153" d="M13.885 52.547c-3.72-.664-7.905-.332-11.028-2.857a14.872 14.872 0 0 0 2.79 4.185 9.8 9.8 0 0 0 7.64 2.79 13.09 13.09 0 0 0 2.259-.266c.731-.133 1.461-.266 2.259-.332a5.334 5.334 0 0 1 2.059.066 8.872 8.872 0 0 1 1.2.465 12.7 12.7 0 0 0-7.179-4.051Z"/></g><g data-name="Group 480"><path data-name="Path 154" d="M15.146 19.531a16.225 16.225 0 0 1 4.384 5.314 10.692 10.692 0 0 0-3.587-10.363 35.47 35.47 0 0 0-6.975-3.787c-1.927-.93-3.92-2.059-5.049-3.919a15.34 15.34 0 0 0 3.122 6.643c2.259 2.524 5.378 3.986 8.105 6.112Z"/><path data-name="Path 155" d="M14.348 19.797c-3.255-2.591-7.573-4.384-9.3-8.437a15.851 15.851 0 0 0 .6 5.58 10.879 10.879 0 0 0 6.045 6.643 14.149 14.149 0 0 0 2.325.93l2.392.8a5.37 5.37 0 0 1 1.993 1.129c.332.332.664.731 1 1.063a15.737 15.737 0 0 0-5.055-7.708Z"/></g><g data-name="Group 481"><path data-name="Path 156" d="M29.828 20.727a14.272 14.272 0 0 1-2.392 5.784 9.712 9.712 0 0 0 6.776-7.307 32.385 32.385 0 0 0 0-7.175 9.9 9.9 0 0 1 1-5.713 14.949 14.949 0 0 0-3.986 5.314c-1.066 2.918-.933 6.041-1.398 9.097Z"/><path data-name="Path 157" d="M29.296 20.195c.664-3.72.266-7.905 2.79-11.094a13.784 13.784 0 0 0-4.185 2.857 9.664 9.664 0 0 0-2.724 7.706 13.09 13.09 0 0 0 .266 2.259c.133.731.266 1.461.4 2.259a5.334 5.334 0 0 1-.066 2.059 9.685 9.685 0 0 1-.465 1.262 14.018 14.018 0 0 0 3.984-7.308Z"/></g><g data-name="Group 482"><path data-name="Path 158" d="M29.628 139.903a14.2 14.2 0 0 1-4.318 4.783 9.9 9.9 0 0 0 9.1-4.849 32.784 32.784 0 0 0 2.458-7.042 10.574 10.574 0 0 1 2.924-5.248 14.527 14.527 0 0 0-5.713 3.853c-1.993 2.591-2.923 5.713-4.451 8.503Z"/><path data-name="Path 159" d="M29.23 139.174c1.926-3.388 2.989-7.64 6.51-9.9a14.563 14.563 0 0 0-5.049 1.329 9.851 9.851 0 0 0-5.314 6.577 13.9 13.9 0 0 0-.531 2.259c-.133.8-.266 1.528-.4 2.325a4.36 4.36 0 0 1-.8 1.993 6.707 6.707 0 0 1-.864 1.063 12.27 12.27 0 0 0 6.448-5.646Z"/></g><g data-name="Group 483"><path data-name="Path 160" d="M35.076 156.112a13.947 13.947 0 0 1-5.381-3.587 9.949 9.949 0 0 0 6.112 8.3 38.491 38.491 0 0 0 7.307 1.461 10.69 10.69 0 0 1 5.647 2.126 13.583 13.583 0 0 0-4.65-5.049c-2.791-1.656-5.979-2.121-9.035-3.251Z"/><path data-name="Path 161" d="M35.74 155.647c3.654 1.4 8.038 1.794 10.7 4.982a15.713 15.713 0 0 0-2.059-4.849 10.047 10.047 0 0 0-7.241-4.318 13.655 13.655 0 0 0-2.325-.133c-.8 0-1.594 0-2.392-.066a5.817 5.817 0 0 1-2.126-.465 11.554 11.554 0 0 1-1.2-.731 14.166 14.166 0 0 0 6.643 5.58Z"/></g><g data-name="Group 484"><path data-name="Path 162" d="M21.524 191.787a14.872 14.872 0 0 1-4.517-4.584 9.958 9.958 0 0 0 4.252 9.433 36.572 36.572 0 0 0 6.842 2.923 10.27 10.27 0 0 1 5.049 3.255 14.356 14.356 0 0 0-3.454-5.912c-2.393-2.259-5.448-3.454-8.172-5.115Z"/><path data-name="Path 163" d="M22.32 191.454c3.322 2.126 7.44 3.454 9.433 7.108a15.588 15.588 0 0 0-1-5.182 10.114 10.114 0 0 0-6.178-5.713 22.4 22.4 0 0 0-2.259-.664c-.8-.2-1.528-.332-2.325-.531a4.581 4.581 0 0 1-1.993-.93 12.752 12.752 0 0 1-1-.93 12.932 12.932 0 0 0 5.322 6.842Z"/></g><g data-name="Group 485"><path data-name="Path 164" d="M41.453 145.749a9.593 9.593 0 0 1-3.853.864 6.08 6.08 0 0 0 6.245.864 20.7 20.7 0 0 0 3.72-2.591 6.141 6.141 0 0 1 3.322-1.528 8.927 8.927 0 0 0-4.187-.136c-1.925.534-3.52 1.73-5.247 2.527Z"/><path data-name="Path 165" d="M41.519 145.284c2.192-1 4.185-2.724 6.776-2.524a9.584 9.584 0 0 0-2.989-1.129 6.382 6.382 0 0 0-4.982 1.329 7.11 7.11 0 0 0-1.063.93 16.51 16.51 0 0 1-1.063 1 3.316 3.316 0 0 1-1.129.731l-.8.2a8.182 8.182 0 0 0 5.25-.537Z"/></g><g data-name="Group 486"><path data-name="Path 166" d="M144.155 53.211a10.975 10.975 0 0 1 0-4.65 7.221 7.221 0 0 0-2.591 6.975 25.169 25.169 0 0 0 1.993 4.982 7.973 7.973 0 0 1 .93 4.252 10.286 10.286 0 0 0 1.262-4.783c-.066-2.326-1.063-4.517-1.594-6.776Z"/><path data-name="Path 167" d="M144.753 53.41c.6 2.79 2.059 5.58 1.2 8.437a12.37 12.37 0 0 0 2.126-3.122 7.541 7.541 0 0 0-.266-6.112 10.268 10.268 0 0 0-.8-1.461 10.572 10.572 0 0 1-.864-1.461 3.878 3.878 0 0 1-.531-1.461 5.028 5.028 0 0 1-.066-1 8.818 8.818 0 0 0-.799 6.18Z"/></g></g></svg>