<svg xmlns="http://www.w3.org/2000/svg" width="375" height="164" viewBox="0 0 375 164"><g data-name="Subtraction 1" fill="#faaeaa"><path d="M374.5 73.5H.5V.5h374v73Z"/><path d="M374 73V1H1v72h373m1 1H0V0h375v74Z"/></g><path data-name="Subtraction 2" d="M188 164a105.775 105.775 0 0 1-21.161-2.133 104.425 104.425 0 0 1-37.546-15.8 105.305 105.305 0 0 1-38.042-46.2 104.471 104.471 0 0 1-6.118-19.71A105.776 105.776 0 0 1 83 59a104.445 104.445 0 0 1 18.131-59h173.738A104.444 104.444 0 0 1 293 59a105.779 105.779 0 0 1-2.133 21.161 104.423 104.423 0 0 1-15.8 37.546 105.306 105.306 0 0 1-46.2 38.042 104.471 104.471 0 0 1-19.709 6.118A105.774 105.774 0 0 1 188 164Z" fill="#faaeaa"/><g data-name="Group 478" fill="none" stroke="#faaeaa" stroke-width="5"><path data-name="Path 17" d="M58.834 71.193s17.43-.662 23.528 4.416 8.154 14.943 8.154 14.943"/><path data-name="Path 18" d="M316.516 71.193s-17.43-.662-23.528 4.416-8.154 14.943-8.154 14.943"/></g></svg>