<svg xmlns="http://www.w3.org/2000/svg" width="1448.671" height="1471.653" viewBox="0 0 1448.671 1471.653"><g data-name="Group 467" fill="#fae6e5"><path data-name="Path 26" d="M1312.195 987.487a39.782 39.782 0 0 0 .461-5.812 34.642 34.642 0 0 0-.572-7.423 89.986 89.986 0 0 0-4.4-18.194 197.486 197.486 0 0 0-8.27-19.954 314.88 314.88 0 0 0-19.914-35.002c-.9-1.447-1.831-2.597-2.598-3.88 27.153 9.015 55.36 6.57 79.996-19.092-75.194 60.62-156.268-51.587-205.382-117.606 77.424 42.55 155.795 83.245 240.707 86.009-33.199-4.391-64.787-15.525-95.54-30.328.165-.133.165-.133.462-.102a52.31 52.31 0 0 0 5.562-2.872c1.774-1.166 3.684-2.168 5.623-3.467a36.2 36.2 0 0 0 5.389-4.092c1.807-1.463 3.316-2.957 4.99-4.585a56.646 56.646 0 0 0 4.261-4.811c1.376-1.659 2.456-3.349 3.504-4.74a36 36 0 0 0 2.746-4.669 36.266 36.266 0 0 0 1.925-4.004c.423-1.158.844-2.315 1.236-3.176a18.167 18.167 0 0 0 1.04-2.745 23.466 23.466 0 0 1-1.604 2.386c-.524.695-1.078 1.688-1.798 2.816a24.932 24.932 0 0 1-2.754 3.317 31.656 31.656 0 0 1-3.41 3.848 48.217 48.217 0 0 1-4.168 3.92 55.373 55.373 0 0 1-4.732 3.56 61 61 0 0 1-5.295 3.2 30.315 30.315 0 0 1-5.53 2.576 41.969 41.969 0 0 1-5.47 1.984c-1.845.408-3.559.98-5.107 1.417-1.681.275-3.23.713-4.748.854-2.902.446-5.476.626-6.99.77-.76.071-1.354.01-1.815.11l-.595-.062C1165.637 747.732 1060.91 643.257 935.22 643.87c31.123-11.605 64.852-17.978 97.61-32.267l.892.094a3.711 3.711 0 0 0 1.353-.009 2.618 2.618 0 0 0 .76-.07c.296.031.922-.203 1.68-.274a47.736 47.736 0 0 1 7.095-.306c1.353-.008 3.137.18 4.787.203a35.081 35.081 0 0 1 5.48.73 38.875 38.875 0 0 1 5.72 1.352c1.885.649 3.801 1 5.82 1.813a45.4 45.4 0 0 1 5.76 2.412c2.018.812 3.41 1.862 5.269 2.811a54.582 54.582 0 0 1 4.775 3.21 43.286 43.286 0 0 1 4.013 3.277 194.324 194.324 0 0 0 3.153 2.886 17.081 17.081 0 0 0 2.292 2.496l1.863 2.3s-.502-.955-1.534-2.567c-.368-.79-1-1.908-1.635-3.027s-1.565-2.268-2.465-3.715a22.071 22.071 0 0 0-3.325-4.107c-1.36-1.343-2.527-3.12-4.053-4.333-1.659-1.375-3.153-2.886-4.975-4.129a38.292 38.292 0 0 0-5.6-3.896c-1.823-1.243-3.975-2.22-5.961-3.33s-4.17-1.792-6.024-2.738a36.77 36.77 0 0 1-4.198-1.49c28.948-16.642 56.72-42.124 79.86-86.426-30.351 47.15-63.85 69.926-98.729 82.94a6.487 6.487 0 0 0-5.02 1.866c-44.601 15.448-91.105 16.12-135.338 32.359a7.416 7.416 0 0 0 .65-1.886 112.711 112.711 0 0 0 4.823-15.873 44.272 44.272 0 0 0 .93-4.56c.32-1.62.476-3.106.797-4.725a69.911 69.911 0 0 0 .867-9.676c.046-3.3-.07-6.47-.189-9.638-.415-3.199-.533-6.367-1.574-9.332-.908-2.8-1.354-5.702-2.59-8.236-.47-1.252-1.104-2.37-1.57-3.619a6.171 6.171 0 0 0-.867-1.742c-.4-.493-.634-1.119-1.032-1.61-1.3-1.94-2.464-3.715-3.63-5.49a29.682 29.682 0 0 0-3.388-3.512c-1.893-2.002-2.99-3.019-2.99-3.019s.931 1.15 2.497 3.418c.798.985 1.698 2.432 2.73 4.044.867 1.743 1.735 3.485 2.708 5.694.235.625.501.954.735 1.58s.337 1.088.572 1.713c.336 1.088.642 2.472 1.112 3.723.939 2.503.955 5.21 1.4 8.112.315 2.738.002 5.71.15 8.581-.312 2.972-.624 5.945-1.07 8.753a57.028 57.028 0 0 1-2.259 8.63c-.453 1.454-.742 2.776-1.196 4.231-.586 1.29-1.04 2.745-1.623 4.034a130.534 130.534 0 0 1-6.554 13.737 87.9 87.9 0 0 1-5.63 9.173 21.149 21.149 0 0 1-2.287 3.213 8.2 8.2 0 0 0-1.01 2.449c-68.19 34.007-132.979 107.14-199.743 153.318 26.282-42.772 38.27-98.159 64.122-141.126a9.124 9.124 0 0 0 3.079-4.937c21.576-33.797 53.02-64.15 109.83-85.678-52.166 14.502-85.297 38.069-109.3 64.85-.141-1.518-.415-3.2-.69-4.882-.507-2.307-.852-4.748-1.526-6.922-.641-2.472-1.316-4.645-2.12-6.984s-1.778-4.545-2.748-6.75-2.27-4.146-3.404-6.219a34.136 34.136 0 0 0-3.794-5.358 51.242 51.242 0 0 0-3.591-4.434c-1.228-1.181-2.292-2.496-3.388-3.512s-1.925-1.704-2.754-2.393c-1.524-1.21-2.487-2.064-2.487-2.064l1.994 2.463a21.73 21.73 0 0 1 2.098 2.925 40.585 40.585 0 0 1 2.433 4.013 27.856 27.856 0 0 1 2.64 4.94 36.271 36.271 0 0 1 2.41 5.659c.704 1.875 1.379 4.051 1.918 6.062a40.362 40.362 0 0 1 1.26 6.594 49.148 49.148 0 0 1 .67 6.535c.079 2.113-.007 4.357-.062 6.305-.219 2.08-.273 4.029-.46 5.813s-.376 3.567-.693 5.183c-.64 3.24-1.352 5.72-1.837 7.471-.39.86-.453 1.455-.649 1.886a2.617 2.617 0 0 0-.226.728c-.196.43-.258 1.024-.454 1.454l-.094.892c-22.525 31.295-36.778 65.409-55.906 95.856 28.81-132.668-57.938-266.66-95.733-400.314l.063-.595c.031-.297.258-1.025.351-1.916a107.96 107.96 0 0 1 2.267-7.275c.618-1.588 1.236-3.176 2.018-4.897s1.698-3.278 2.643-5.133c1.078-1.688 2.023-3.54 3.27-5.366a34.4 34.4 0 0 1 3.996-5.14 34.777 34.777 0 0 1 4.56-4.78 31.834 31.834 0 0 1 4.794-4.153 28.907 28.907 0 0 1 5.03-3.528 42.766 42.766 0 0 1 4.806-2.805c1.58-.735 2.862-1.502 4.279-2.105 1.251-.47 2.502-.94 3.293-1.307 1.876-.703 2.965-1.04 2.965-1.04s-1.22.172-3.2.415a31.018 31.018 0 0 1-3.659.518 46.539 46.539 0 0 0-4.645 1.316 39.336 39.336 0 0 0-5.436 1.684 45.823 45.823 0 0 0-5.991 2.675 34.509 34.509 0 0 0-6.085 3.568c-1.94 1.299-4.044 2.73-5.85 4.193a43.284 43.284 0 0 0-5.619 4.821c-1.674 1.627-3.379 3.552-5.053 5.18a59.533 59.533 0 0 0-4.16 5.272c-.165.133-.165.133-.197.43-8.696-35.926-13.332-71.878-10.608-107.806-16.233 90.109 9.102 182.182 36.776 273.45-58.657-66.724-159.132-177.366-78.125-243.236-32.624 20.164-41.423 49.59-38.175 80.138-1.095-1.017-2.16-2.331-3.388-3.512a329.458 329.458 0 0 0-32.583-28.817 184.052 184.052 0 0 0-19.352-13.152 115.277 115.277 0 0 0-18.306-8.836 58.565 58.565 0 0 0-7.737-2.166 28.96 28.96 0 0 0-6.077-.789c-1.784-.187-3.003-.013-3.896-.108a4.692 4.692 0 0 0-1.353.008l1.478.153a19.943 19.943 0 0 1 3.998.57 58.542 58.542 0 0 1 5.851 1.516 69.148 69.148 0 0 1 7.343 3.03c10.295 4.988 22.664 14.553 33.554 25.315a342.091 342.091 0 0 1 28.078 31.654c3.591 4.434 6.486 8.345 8.45 11.107s2.863 4.208 2.863 4.208l.665.821a7.532 7.532 0 0 0 5.761 2.412c7.145 24.944 20.464 49.786 33.521 69.942 31.478 47.938 65.261 95.369 89.347 143.581a327.687 327.687 0 0 0-39.297-13.6 210.962 210.962 0 0 0-22.771-4.949 105.526 105.526 0 0 0-20.174-1.068c-2.871.15-5.609.463-8.049.807a31.764 31.764 0 0 0-6.03 1.62c-1.549.439-2.832 1.206-3.751 1.407a6.809 6.809 0 0 1-1.252.469l1.384-.305c.923-.204 2.174-.674 3.857-.947s3.659-.519 6.101-.862a59.543 59.543 0 0 1 7.955.084c11.491.757 26.534 4.892 40.795 10.75a362.136 362.136 0 0 1 37.871 18.556c4.968 2.776 9.204 5.328 12.022 7.122.43.196.696.524 1.127.719 11.98 27.556 20.169 55.468 22.283 83.939 5.777 77.996-25.204 146.869-97.09 208.888.055-1.948.141-4.193.094-6.602-.017-2.707-.135-5.875-.416-8.91-.416-3.2-.372-6.498-.917-9.864a97.152 97.152 0 0 0-1.747-10.553c-.68-3.528-1.66-7.087-2.637-10.646s-2.582-6.883-3.725-10.31c-1.768-3.19-3.075-6.484-5.04-9.243s-3.6-5.788-5.923-7.986-4.021-4.63-6.11-6.202-4.177-3.143-5.836-4.52a45.643 45.643 0 0 0-4.968-2.777c-2.714-1.337-4.269-2.253-4.269-2.253s1.393 1.048 3.912 2.816c1.26.883 2.816 1.798 4.474 3.175a309.5 309.5 0 0 1 5.015 5.186c1.76 1.838 3.298 4.407 5.157 6.703s2.903 5.264 4.405 8.127 2.215 6.092 3.389 9.222c.713 3.23 1.722 6.493 2.27 9.856a74.73 74.73 0 0 1 1.18 10.195 75.753 75.753 0 0 1 .321 9.801c.12 3.167-.358 6.274-.374 9.277-.312 2.972-.594 5.649-.71 8.19-.692 5.184-1.43 9.316-2.04 12.26s-1.064 4.395-1.064 4.395l-.125 1.189a7.59 7.59 0 0 0 .181 2.573l-2.628 2.129c-57.43 44.602-163.995 137.69-164.525 137.037l33.785 41.72c26.515-72.054 112.474-126.434 186.526-184.768 47.652-13.024 93.782-48.748 139.334-87.539 1.486.156 3.137.18 4.623.335 3.072.775 6.211.954 9.091 2.16 2.746 1.04 5.82 1.813 8.074 3.253 1.29.587 2.417 1.306 3.705 1.89a7.511 7.511 0 0 0 1.853.944c.563.36.962.853 1.524 1.21 1.956 1.408 3.748 2.949 5.273 4.162 1.36 1.343 2.555 2.82 3.654 3.84 2.026 2.167 3.09 3.48 3.09 3.48s-.9-1.446-2.597-3.88a52.762 52.762 0 0 1-2.997-4.372q-2.241-2.264-4.882-5.02c-.399-.493-.962-.853-1.36-1.344a6.167 6.167 0 0 1-1.524-1.21c-1.126-.72-2.222-1.737-3.481-2.62-2.355-1.901-5.233-3.105-8.082-4.606s-5.924-2.28-9.098-3.511c15.862-13.66 31.754-27.618 47.587-40.98l2.463-1.995a6.583 6.583 0 0 0 2.346.546l.892.093s1.517-.141 4.224-.157a103.677 103.677 0 0 1 11.359.593 66.12 66.12 0 0 1 7.568.949c2.643.578 5.48.73 8.424 1.336s5.88 1.222 8.796 2.123c3.073.775 5.954 1.978 8.996 3.05s5.726 2.705 8.605 3.91c2.52 1.767 5.233 3.104 7.753 4.871 2.19 2.034 4.74 3.504 6.47 5.64s3.818 3.707 5.085 5.944c1.3 1.94 2.598 3.88 3.63 5.49.868 1.744 1.605 3.325 2.074 4.576 1.072 2.667 1.808 4.247 1.808 4.247s-.438-1.548-1.346-4.349a39.076 39.076 0 0 0-1.583-4.973c-.867-1.743-1.838-3.95-2.809-6.156-1.103-2.37-2.996-4.373-4.397-6.773-1.534-2.566-3.889-4.467-6.048-6.797s-4.976-4.129-7.595-6.36c-2.816-1.798-5.6-3.896-8.582-5.56a73.726 73.726 0 0 0-9.138-4.567c-3.011-1.369-6.187-2.604-9.23-3.675s-5.954-1.978-8.73-2.721-5.555-1.486-7.902-2.033c-2.213-.384-4.13-.734-5.879-1.222 70.056-53.196 138.328-67.96 208.028-47.71 25.362 7.474 48.974 20.176 71.612 36.378.102.462.368.79.47 1.252 1.04 2.965 2.55 7.18 4.132 12.155a281.592 281.592 0 0 1 9.533 37.968c2.592 13.947 3.47 28.465 1.915 38.97a36.778 36.778 0 0 1-1.508 7.205 33.315 33.315 0 0 1-1.916 5.359 10.93 10.93 0 0 1-1.702 3.285 3.271 3.271 0 0 1-.719 1.127 6.813 6.813 0 0 1 .72-1.127 20.245 20.245 0 0 0 2.126-3.083 33.846 33.846 0 0 0 2.644-5.132 60.452 60.452 0 0 0 2.4-7.11 93.559 93.559 0 0 0 2.86-18.634 178.982 178.982 0 0 0 .001-21.49 290.288 290.288 0 0 0-4.718-38.062c38.969 30.994 75.346 70.88 113.004 108.651 15.773 15.784 35.644 32.598 56.836 43.992a7.592 7.592 0 0 0 1.056 5.671l.665.821a43.686 43.686 0 0 1 3.224 3.645 195.037 195.037 0 0 1 8.441 9.753 291.431 291.431 0 0 1 23.293 31.45c7.762 11.936 14.076 24.772 16.58 35.254a43.071 43.071 0 0 1 1.362 7.055 54.2 54.2 0 0 1 .298 5.742 37.74 37.74 0 0 1-.242 3.731l-.125 1.19a4.689 4.689 0 0 0 .29-1.323c-1.03-1.615-.605-2.77-.42-4.556Z"/><path data-name="Path 27" d="M680.52 413.636c.045-14.722-3.603-28.628-6.758-42.935-2.41-11.374-3.938-24.007.384-35.121-8.423 10.084-16.039 22.51-18.605 35.461-3.619 18.704.288 37.297.267 56.079a85.8 85.8 0 0 1-8.661 36.657c18.728-9.454 33.101-28.98 33.373-50.14Z"/><path data-name="Path 28" d="M651.9 424.303c.457-22.943-5.96-47.66 6.027-68.79a88.072 88.072 0 0 0-22.486 20.927c-10.676 14.356-12.59 31.135-9.153 48.477a91.892 91.892 0 0 0 3.742 13.017c1.51 4.215 3.153 8.596 4.335 13.078 1.213 4.185 2.293 8.205 1.692 12.5a45.908 45.908 0 0 1-1.572 7.799c.298.03 16.79-18.226 17.414-47.008Z"/><path data-name="Path 29" d="M1098.948 628.778c6.448 13 12.105 26.367 21.578 37.728 13.434 16.59 36.807 22.952 57.278 18.342a88.368 88.368 0 0 1-29.714-23.26c-11.837-14.617-20.42-31.599-34.753-43.924-10.051-8.717-23.978-13.49-36.768-16.186 10.635 6.074 17.168 16.828 22.38 27.3Z"/><path data-name="Path 30" d="M1186.348 677.93a30.791 30.791 0 0 1-6.533-10.755c-1.808-4.247-3.154-8.596-4.795-12.973a93.047 93.047 0 0 0-5.291-12.573c-8.145-15.432-19.938-27.64-37.193-32.16a87.981 87.981 0 0 0-30.547-2.467c22.499 8.976 32.969 32.317 47.5 49.92 18.418 22.07 42.801 25.986 42.801 25.986a40.455 40.455 0 0 1-5.942-4.979Z"/><path data-name="Path 31" d="M773.176 564.328a54.149 54.149 0 0 1-21.193-11.394c-9.091-7.868-16.477-17.66-26.78-24.003-7.354-4.379-16.506-5.942-24.89-6.222 7.076 2.7 12.594 8.837 17.086 14.719 5.524 7.494 10.72 15.253 17.722 21.55 10.317 9.046 25.642 10.506 38.055 5.35Z"/><path data-name="Path 32" d="M782.172 561.667a32.86 32.86 0 0 1-4.373-2.714 17.212 17.212 0 0 1-5.218-6.108 57.029 57.029 0 0 1-4.304-7.665c-1.533-2.566-2.934-4.966-4.632-7.4-6.884-8.836-15.67-15.32-26.997-16.21a55.986 55.986 0 0 0-19.432 1.863c15.301 3.112 24.393 16.69 35.539 26.424a47.022 47.022 0 0 0 29.417 11.81Z"/><path data-name="Path 33" d="M827.848 527.397a54.15 54.15 0 0 1 6.739 23.099c7.627-11.067 9.547-26.496 2.841-38.471-4.538-8.292-11.212-14.854-17.394-21.815-4.985-5.485-9.842-12.155-10.845-19.774-1.465 8.264-1.843 17.539.912 25.64 3.867 11.83 11.777 20.926 17.747 31.32Z"/><path data-name="Path 34" d="M823.612 547.69a25.444 25.444 0 0 1 4.89 6.374 44.267 44.267 0 0 1 1.745 4.842 48.922 48.922 0 0 0-5.24-31.658c-6.908-12.898-18.3-24.614-18.456-40.256a55.985 55.985 0 0 0-5.864 18.619c-1.485 11.264 2.867 21.337 10.244 29.778a38.9 38.9 0 0 0 6.274 6.069c2.025 2.165 4.38 4.065 6.407 6.232Z"/><path data-name="Path 35" d="M995.778 525.211c3.897 11.53 11.943 20.787 17.91 31.185a54.149 54.149 0 0 1 6.739 23.1c7.627-11.067 9.547-26.497 2.842-38.471-4.539-8.292-11.213-14.854-17.394-21.816-4.986-5.484-9.843-12.154-10.845-19.773-1.465 8.265-2.006 17.673.748 25.775Z"/><path data-name="Path 36" d="M996.607 564.52a38.9 38.9 0 0 0 6.274 6.068c2.191 2.033 4.413 3.77 6.603 5.803a25.444 25.444 0 0 1 4.89 6.374 44.265 44.265 0 0 1 1.745 4.842 48.922 48.922 0 0 0-5.24-31.657c-6.909-12.899-18.3-24.614-18.457-40.256a55.986 55.986 0 0 0-5.864 18.618c-1.68 11.694 2.834 21.635 10.049 30.207Z"/><path data-name="Path 37" d="M815 648.215c-1.519-5.57-4.453-10.535-7.09-15.47-2.136-3.982-4.046-8.692-3.706-13.317-2.15 4.733-3.636 10.287-3.275 15.433.572 7.424 4.078 14.103 6.034 21.221a32.389 32.389 0 0 1 .55 14.785c6.465-5.778 9.65-14.612 7.487-22.652Z"/><path data-name="Path 38" d="M805.536 655.335c-2.235-8.798-7.332-17.451-5.01-26.673a33.79 33.79 0 0 0-6.177 10.17c-2.502 6.649-1.375 13.08 1.732 19.266a22.57 22.57 0 0 0 2.832 4.505c.9 1.447 2.097 2.925 2.997 4.373a10.832 10.832 0 0 1 1.94 4.412 17.639 17.639 0 0 1 .283 3.035 30.189 30.189 0 0 0 1.403-19.088Z"/><path data-name="Path 39" d="M596.067 243.52a71.941 71.941 0 0 1-7.278 30.642c15.831-7.652 27.782-24.129 28.005-41.987.092-12.313-3.18-24.077-5.693-35.912-2.004-9.526-3.288-20.18.387-29.411-7.047 8.425-13.551 18.86-15.601 29.766-2.842 15.627.318 31.289.18 46.902Z"/><path data-name="Path 40" d="M592.851 241.23c.514-19.181-5.121-39.91 5.138-57.464a74.451 74.451 0 0 0-18.678 17.57c-9.072 11.97-10.407 26.105-7.714 40.513a65.84 65.84 0 0 0 3.204 11.006c1.275 3.59 2.551 7.18 3.662 10.904.98 3.559 1.824 6.954 1.312 10.36-.383 2.214-.766 4.428-1.281 6.477a64.24 64.24 0 0 0 14.357-39.367Z"/><path data-name="Path 41" d="M1292.423 703.805c-16.104 17.392-19.507 44.08-11.292 65.983a97.224 97.224 0 0 1 20.942-36.269c14.368-15.169 31.724-27.32 43.071-45.212 7.916-12.392 11.087-28.287 12.156-42.75-5.043 12.242-15.915 21.319-26.596 28.615-13.15 9.282-27.096 17.583-38.281 29.633Z"/><path data-name="Path 42" d="M1314.554 762.03a116.764 116.764 0 0 0 13.126-7.636c15.776-11.415 27.405-26.272 29.632-46.024a99.2 99.2 0 0 0-1.986-34.019c-6.379 26.378-30.485 41.276-47.634 60.062-21.576 23.728-22.072 51.33-22.072 51.33a56.453 56.453 0 0 1 4.841-7.455c2.816-3.912 6.829-6.346 10.84-8.779 3.906-2.9 8.646-5.107 13.253-7.479Z"/><path data-name="Path 43" d="M461.375 451.312c7.183 14.58 13.607 29.23 23.982 42.042 14.896 18.396 40.915 25.338 63.826 20.382-12.447-5.966-24.417-15.038-32.898-25.847-13.168-16.26-22.753-35.15-38.744-48.852-11.015-9.574-26.527-14.962-40.773-18.111 11.461 6.764 18.762 18.802 24.607 30.386Z"/><path data-name="Path 44" d="M517.708 482.93c20.413 24.535 47.603 28.895 47.603 28.895-2.355-1.9-4.576-3.636-6.767-5.67-3.552-3.378-5.36-7.626-7.302-12.036-1.91-4.708-3.654-9.55-5.4-14.392a88.4 88.4 0 0 0-5.892-13.993c-9.15-17.338-22.165-30.73-41.472-35.765a96.674 96.674 0 0 0-33.979-2.672c25.409 9.883 36.95 35.89 53.209 55.632Z"/><path data-name="Path 45" d="M955.16 794.433c16.185 1.85 31.979 4.563 48.242 2.816 23.552-2.484 43.614-20.36 51.935-42.328a97.1 97.1 0 0 1-39.594 13.57c-20.652 2.037-41.756-.182-62.219 5.783-14.102 4.077-27.016 13.99-37.418 24.317 12.043-5.945 26.304-5.799 39.054-4.158Z"/><path data-name="Path 46" d="M1062.577 740.356c-2.8.908-5.604 1.819-8.534 2.559-4.78 1.15-9.213.383-13.932-.413-5.02-.824-9.981-2.251-14.973-3.377a130.891 130.891 0 0 0-15.034-2.782c-19.486-1.898-37.913 1.878-52.689 15.2a100.142 100.142 0 0 0-20.866 26.959c22.088-15.711 50.14-10.96 75.405-14.014 32.259-3.822 50.623-24.132 50.623-24.132Z"/><path data-name="Path 47" d="M461.43 254.916a58.531 58.531 0 0 1 10.008 23.441c6.59-12.678 6.66-29.053-1.86-40.918-5.758-8.118-13.683-14.21-20.951-20.835-5.907-5.28-11.851-11.616-14.044-19.358-.476 8.816.277 18.812 4.087 26.878 5.517 11.849 15.14 20.374 22.76 30.792Z"/><path data-name="Path 48" d="M430.121 235.396c-.06 12.016 5.807 21.949 14.57 30.083a70.568 70.568 0 0 0 7.361 5.733c2.519 1.768 5.201 3.403 7.558 5.303 2.222 1.736 4.576 3.636 5.812 6.17a47.909 47.909 0 0 1 2.34 4.905 52.054 52.054 0 0 0-9.504-32.553c-8.888-12.655-22.454-23.699-24.5-39.995a53.2 53.2 0 0 0-3.637 20.354Z"/><path data-name="Path 49" d="M1325.01 911.299c-8.05-4.904-18.394-6.594-27.834-6.833 8.106 2.958 13.989 9.885 19.011 16.425 6.189 8.314 11.885 17.027 19.716 24.011 11.58 9.933 28.687 11.58 42.515 5.822a62.385 62.385 0 0 1-23.61-12.7c-10.018-9.02-18.202-19.799-29.798-26.725Z"/><path data-name="Path 50" d="M1377.817 937.884c-1.666-2.73-3.302-5.757-4.969-8.486a48.923 48.923 0 0 0-5.297-8.221c-7.519-9.957-17.462-16.862-30.11-18.041a60.563 60.563 0 0 0-21.707 2.076c17.053 3.595 27.046 18.62 39.452 29.241a55.313 55.313 0 0 0 33.349 12.972 26.493 26.493 0 0 1-4.802-2.91c-2.552-1.47-4.25-3.902-5.916-6.631Z"/><path data-name="Path 51" d="M812.45 846.905c8.509-12.33 10.617-29.539 3.145-42.797-5.041-9.244-12.378-16.628-19.388-24.277-5.516-6.14-10.907-13.469-12.113-22.01-1.563 9.152-2.062 19.619.896 28.646 4.367 12.781 13.208 23.027 19.78 34.837a58 58 0 0 1 7.68 25.6Z"/><path data-name="Path 52" d="M786.109 830.16a75.932 75.932 0 0 0 6.94 6.89 71.755 71.755 0 0 1 7.267 6.625 18.089 18.089 0 0 1 5.258 7.165c.703 1.876 1.275 3.59 1.848 5.302a55.313 55.313 0 0 0-5.755-35.317c-7.81-14.344-20.562-27.406-20.4-44.67a69.759 69.759 0 0 0-6.545 20.801c-1.64 12.75 3.21 23.78 11.387 33.204Z"/><path data-name="Path 53" d="M1089.65 497.06a62.386 62.386 0 0 1 7.514 25.735c8.51-12.33 10.618-29.539 3.145-42.797-5.04-9.244-12.377-16.628-19.387-24.277-5.517-6.14-10.907-13.469-12.113-22.01-1.564 9.153-2.062 19.619.896 28.646 4.368 12.78 13.341 23.19 19.946 34.703Z"/><path data-name="Path 54" d="M1086.216 496.849c-7.81-14.344-20.561-27.406-20.4-44.67a69.758 69.758 0 0 0-6.544 20.8c-1.64 12.752 3.21 23.78 11.387 33.205a75.939 75.939 0 0 0 6.94 6.89 71.758 71.758 0 0 1 7.267 6.624 18.091 18.091 0 0 1 5.258 7.165c.703 1.876 1.275 3.59 1.848 5.303.164-.133 4.088-17.452-5.756-35.317Z"/><path data-name="Path 55" d="M577.378 781.625c-2.7-10.052-8.069-19.03-12.974-28.113-3.74-7.305-7.356-15.8-6.614-24.287-3.746 8.472-6.755 18.524-5.94 27.927 1.135 13.493 7.38 25.57 10.988 38.422a62.019 62.019 0 0 1 1.085 26.864c11.425-10.071 17.471-26.114 13.455-40.813Z"/><path data-name="Path 56" d="M559.794 794.502c-4.054-15.753-13.357-31.608-9.2-48.302a62.677 62.677 0 0 0-11.274 18.652c-4.55 11.843-2.5 23.78 3.08 35.036a71.844 71.844 0 0 0 5.133 8.353c1.83 2.596 3.794 5.358 5.461 8.087 1.534 2.566 3.068 5.131 3.483 8.33.242 1.98.352 3.793.462 5.609.162-.133 7.991-15.992 2.855-35.765Z"/><path data-name="Path 57" d="M771.089 474.096a70.71 70.71 0 0 1-7.703 31.802c16.324-8.051 28.93-25.06 29.218-43.513.155-12.906-3.086-24.968-5.834-37.428-2.105-9.99-3.359-20.94.347-30.469-7.24 8.856-14.077 19.558-16.156 30.76-3.07 16.355.199 32.475.128 48.848Z"/><path data-name="Path 58" d="M745.595 472.17a71.367 71.367 0 0 0 3.303 11.467A101.711 101.711 0 0 1 752.66 495c.979 3.559 1.957 7.118 1.418 10.818a53.359 53.359 0 0 1-1.313 6.775 66.258 66.258 0 0 0 14.975-40.95c.443-19.94-5.263-41.427 5.224-59.71a80.65 80.65 0 0 0-19.5 18.236c-9.265 12.402-10.798 26.965-7.87 42Z"/><path data-name="Path 59" d="M541.431 614.654c5.713 11.42 10.665 22.91 18.78 32.93 11.705 14.455 32.035 19.746 49.869 15.91a75.917 75.917 0 0 1-25.835-20.144c-10.242-12.648-17.855-27.423-30.232-38.341-8.825-7.54-20.7-11.793-31.87-14.17 8.912 5.293 14.68 14.765 19.288 23.815Z"/><path data-name="Path 60" d="M585.412 639.413a66.73 66.73 0 0 0 37.136 22.685 38.069 38.069 0 0 1-5.242-4.458c-2.72-2.687-4.194-5.85-5.634-9.307-1.57-3.619-2.818-7.51-4.23-11.261a116.6 116.6 0 0 0-4.553-10.998c-7.144-13.524-17.307-24.06-32.382-27.897a75.725 75.725 0 0 0-26.513-2.188c19.62 7.772 28.618 27.954 41.418 43.424Z"/><path data-name="Path 61" d="M1361.36 795.651c-11.345 2.11-22.128 8.945-30.864 16.29 9.715-3.787 20.845-2.467 30.695-.38 12.493 2.665 24.626 5.894 37.268 5.722 18.516-.308 35.442-12.655 43.494-29.237a73.884 73.884 0 0 1-31.906 7.616c-16.24.094-32.565-3.275-48.687-.011Z"/><path data-name="Path 62" d="M1366.207 778.13a74.853 74.853 0 0 0-18.14 19.58c18.39-10.54 39.745-4.99 59.778-5.439a67.448 67.448 0 0 0 40.81-15.093c-2.307.508-4.615 1.018-6.758 1.394-3.66.518-7.334-.317-10.835-1.29-3.802-1-7.705-2.462-11.476-3.76a79.572 79.572 0 0 0-11.374-3.3c-15.004-3.08-29.748-1.474-42.005 7.908Z"/><path data-name="Path 63" d="M919.354 528.901c6.971-10.534 14.633-20.551 19.35-32.526 6.631-17.336 1.559-37.704-10.834-51.328a73.418 73.418 0 0 1-4.759 32.41c-5.95 15.152-15.21 28.905-18.414 45.098-2.241 11.337.044 23.898 3.408 34.77.334-10.336 5.556-20.006 11.25-28.424Z"/><path data-name="Path 64" d="M901.638 535.904c-2.898-21.041 10.397-38.879 17.453-57.368a67.189 67.189 0 0 0 1.422-43.583 53.363 53.363 0 0 1-1.313 6.774c-.837 3.67-3.097 6.587-5.357 9.506-2.421 3.048-5.146 6.07-7.869 9.09a77.174 77.174 0 0 0-7.304 9.45c-8.407 12.792-12.452 26.94-8.332 42.101a83.884 83.884 0 0 0 11.3 24.03Z"/><path data-name="Path 65" d="M1218.751 898.625c-7.259-10.978-19.191-18.997-30.581-25.003 8.27 8.533 11.81 20.623 14.082 31.83 2.725 14.112 4.69 28.293 10.645 41.693 8.494 19.229 29.167 31.316 49.935 32.447a88.349 88.349 0 0 1-22.261-29.84c-7.656-17.18-11.43-35.61-21.82-51.127Z"/><path data-name="Path 66" d="M1268.91 963.254c-.585-4.416-.847-9.105-1.136-13.492a104.111 104.111 0 0 0-1.597-13.392c-3.632-16.911-11.872-31.452-27.01-40.407a90.685 90.685 0 0 0-28.517-10.363c19.064 14.476 22.91 39.374 32.31 60.05 11.705 25.873 34.076 36.042 34.076 36.042a48.779 48.779 0 0 1-4.429-6.476c-2.459-3.718-3.079-7.842-3.697-11.962Z"/><g data-name="Group 447"><path data-name="Path 67" d="M1120.41 551.835c8.534 3.151 14.848 10.277 20.106 17.44 6.587 8.808 12.518 18.146 21.077 25.357 12.11 10.589 30.274 12.198 45.191 6.102a62.6 62.6 0 0 1-25.033-13.45c-10.585-9.378-19.3-20.814-31.591-28.266-8.944-4.996-19.714-6.88-29.75-7.183Z"/><path data-name="Path 68" d="M1217.328 597.635c-1.853-.945-3.541-2.022-5.233-3.105-2.817-1.798-4.483-4.528-6.314-7.125-1.8-2.894-3.435-5.92-5.204-9.112a81.566 81.566 0 0 0-5.531-8.846c-8.051-10.614-18.394-18.012-31.966-18.988a69.768 69.768 0 0 0-23.06 2.084c17.945 3.69 28.735 19.7 41.97 31.011a57.576 57.576 0 0 0 35.338 14.081Z"/></g><path data-name="Path 69" d="M1388.314 876.625c3.459 9.98 10.273 18.06 15.477 27.172a45.94 45.94 0 0 1 5.698 20.135c6.575-9.677 8.28-23.023 2.474-33.55-3.904-7.172-9.615-12.882-15.131-19.022-4.287-4.959-8.512-10.511-9.476-17.075-.915 7.266-1.329 15.487.958 22.34Z"/><path data-name="Path 70" d="M1385.261 868.49a46.345 46.345 0 0 0-5.019 16.303c-1.195 9.942 2.553 18.6 8.836 26.024a46.578 46.578 0 0 0 5.445 5.382l5.774 5.115a19.364 19.364 0 0 1 4.225 5.553 33.54 33.54 0 0 1 1.51 4.215 42.749 42.749 0 0 0-4.619-27.534c-6.34-11.183-16.236-21.392-16.152-35.058Z"/><path data-name="Path 71" d="M552.842 357.39c-3.905-7.172-9.615-12.882-15.131-19.022-4.288-4.959-8.513-10.511-9.476-17.075-1.215 7.24-1.625 15.457.66 22.31 3.46 9.98 10.274 18.059 15.478 27.171a45.941 45.941 0 0 1 5.698 20.135c6.874-9.646 8.577-22.992 2.771-33.52Z"/><path data-name="Path 72" d="M525.976 335.632a46.348 46.348 0 0 0-5.018 16.303c-1.195 9.943 2.553 18.601 8.835 26.024a46.584 46.584 0 0 0 5.445 5.381l5.774 5.116a19.363 19.363 0 0 1 4.226 5.553 33.538 33.538 0 0 1 1.51 4.216 42.748 42.748 0 0 0-4.619-27.534c-6.309-11.484-16.205-21.69-16.153-35.059Z"/><path data-name="Path 73" d="M1230.26 724.768a48.891 48.891 0 0 1 .95 20.987c8.634-7.808 13.41-20.381 10.273-31.979-2.029-7.879-6.26-14.782-10.165-21.956-3.004-5.725-5.78-12.175-5.228-18.883-2.964 6.752-5.127 14.486-4.558 21.912 1.155 10.492 6.03 19.87 8.728 29.919Z"/><path data-name="Path 74" d="M1214.273 728.2a47.051 47.051 0 0 0 3.967 6.578c1.432 2.104 3.028 4.074 4.296 6.312 1.134 2.073 2.433 4.013 2.78 6.452.14 1.517.28 3.035.29 4.388a43.684 43.684 0 0 0 2.178-27.871c-3.209-12.36-10.476-24.696-7.156-37.719a53.982 53.982 0 0 0-8.892 14.543c-3.513 9.099-1.939 18.43 2.537 27.316Z"/><path data-name="Path 75" d="M987.62 880.192c12.321 1.446 24.285 3.452 36.587 2.193 17.944-2.021 33.047-15.612 39.45-32.219a68.9 68.9 0 0 1-30.074 10.213c-15.801 1.646-31.853-.041-47.207 4.506-10.709 3.232-20.501 10.617-28.24 18.516 9.045-4.606 19.84-4.373 29.485-3.209Z"/><path data-name="Path 76" d="M1069.335 839.041a53.158 53.158 0 0 1-6.36 1.887c-3.692.814-7.094.306-10.63-.366-3.832-.704-7.634-1.704-11.303-2.54a72.726 72.726 0 0 0-11.204-2.077c-14.73-1.399-28.708 1.49-39.837 11.591a72.97 72.97 0 0 0-15.821 20.427c16.73-11.916 38.008-8.478 57.306-10.505a65.664 65.664 0 0 0 37.849-18.417Z"/><path data-name="Path 77" d="M710.446 600.712c-3.77-7.01-9.35-12.554-14.6-18.365-4.154-4.794-8.244-10.18-9.209-16.747-1.18 6.94-1.562 14.863.726 21.713 3.326 9.817 10.172 17.599 15.11 26.382a45.048 45.048 0 0 1 5.595 19.673c6.41-9.542 8.079-22.587 2.378-32.656Z"/><path data-name="Path 78" d="M684.441 579.344a43.26 43.26 0 0 0-4.957 15.709c-1.165 9.645 2.451 18.14 8.632 25.1a44.082 44.082 0 0 0 5.313 5.22c1.925 1.704 3.716 3.245 5.643 4.952a18.072 18.072 0 0 1 4.092 5.389 30.819 30.819 0 0 1 1.376 4.045 40.971 40.971 0 0 0-4.548-26.775c-5.973-10.393-15.604-20.271-15.55-33.64Z"/><g data-name="Group 448"><path data-name="Path 79" d="M1059.807 540.808a43.362 43.362 0 0 1 5.525 18.914c6.217-9.114 7.694-21.732 2.42-31.603-3.803-6.711-9.083-12.225-14.2-17.872-4.022-4.63-7.981-9.855-8.976-16.12-1.148 6.64-1.53 14.565.655 20.958 3.192 9.65 9.772 17.103 14.576 25.723Z"/><path data-name="Path 80" d="M1057.265 540.69c-5.807-10.527-15.007-20.21-15.017-32.984a47.316 47.316 0 0 0-4.76 15.278c-1.133 9.348 2.38 17.381 8.396 24.475a41.644 41.644 0 0 0 5.18 5.053c1.791 1.54 3.582 3.082 5.343 4.92a16.969 16.969 0 0 1 3.96 5.224 28.216 28.216 0 0 1 1.241 3.884 40.4 40.4 0 0 0-4.343-25.85Z"/></g><g data-name="Group 449"><path data-name="Path 81" d="M1141.424 477.708a51.619 51.619 0 0 1-4.362 21.48c10.825-5.774 18.646-17.274 18.44-29.617-.15-8.582-2.607-16.654-4.604-24.828-1.557-6.626-2.755-13.815-.417-20.33-4.686 5.97-8.93 13.486-10.174 21.02-1.719 10.638.92 21.285 1.117 32.275Z"/><path data-name="Path 82" d="M1139.17 476.269c-.112-13.235-4.322-27.503 2.24-39.887a50.429 50.429 0 0 0-12.602 12.65c-5.857 8.55-6.594 18.393-4.32 28.247a45.01 45.01 0 0 0 2.356 7.613l2.818 7.509a17.084 17.084 0 0 1 1.198 7.188c-.157 1.487-.477 3.106-.634 4.592-.263-.325 9.14-11.21 8.945-27.912Z"/></g><g data-name="Group 450"><path data-name="Path 83" d="M1167.862 516.4a45.4 45.4 0 0 1-19.078 5.659c9.113 6.217 21.895 7.56 31.634 2.123 6.71-3.803 12.092-9.248 17.739-14.365 4.497-4.186 10.019-8.113 16.12-8.975-6.805-1.015-14.432-1.367-21.12.786-9.355 3.223-16.81 9.804-25.295 14.773Z"/><path data-name="Path 84" d="M1168.108 514.026c10.528-5.807 20.077-15.171 33.02-15.317a43.855 43.855 0 0 0-15.443-4.628c-9.348-1.133-17.545 2.514-24.505 8.694a41.652 41.652 0 0 0-5.053 5.18 483.861 483.861 0 0 1-4.787 5.507 16.969 16.969 0 0 1-5.224 3.96 30.805 30.805 0 0 1-4.052 1.377c.031-.298 12.657 2.53 26.044-4.773Z"/></g><g data-name="Group 451"><path data-name="Path 85" d="M662.47 280.855a65.029 65.029 0 0 1-24.828 10.314c13.245 6.952 30.344 7.247 42.835-1.508 8.447-6.025 15-14.05 22.118-21.719 5.608-6.172 12.273-12.383 20.446-14.38-9.246-.671-19.838.018-28.23 4.095-12.148 5.485-21.462 15.475-32.342 23.198Z"/><path data-name="Path 86" d="M662.516 277.553c13.445-9.256 24.98-23.22 42.166-25.17a62.5 62.5 0 0 0-21.35-4.2c-12.743-.288-23.302 5.815-31.764 14.843a76.753 76.753 0 0 0-6.062 7.628c-1.932 2.652-3.731 5.467-5.795 7.956-1.9 2.355-3.802 4.71-6.5 6.08a52.934 52.934 0 0 1-5.205 2.311c.14.163 17.513 2.14 34.51-9.448Z"/></g><g data-name="Group 452"><path data-name="Path 87" d="M553.73 190.234a34.35 34.35 0 0 1 4.877 15.088c4.84-7.456 5.605-17.593.874-25.456-3.2-5.295-7.714-9.527-11.9-14.023-3.388-3.512-6.846-7.782-7.668-12.827-.73 5.48-.92 11.624 1.223 16.958 3.112 7.543 8.495 13.518 12.595 20.26Z"/><path data-name="Path 88" d="M551.783 190.18c-4.836-8.323-12.768-15.768-13.028-26.164a37.394 37.394 0 0 0-3.424 12.563c-.645 7.6 2.294 13.916 7.278 19.399a53.1 53.1 0 0 0 4.247 3.902 54.071 54.071 0 0 1 4.413 3.77 14.8 14.8 0 0 1 3.325 4.106 18.6 18.6 0 0 1 1.173 3.129c.299.031 2.284-10.279-3.984-20.705Z"/></g><g data-name="Group 453"><path data-name="Path 89" d="M530.312 248.631a25.744 25.744 0 0 1-8.98-.343 13.993 13.993 0 0 0 13.236 5.599 37.851 37.851 0 0 0 9.684-3.49c2.667-1.073 5.47-1.985 8.278-1.536a20.5 20.5 0 0 0-9.027-2.752c-4.657-.037-8.738 1.635-13.19 2.522Z"/><path data-name="Path 90" d="M530.867 247.639c5.343-.791 10.74-3.53 16.396-1.583a20.16 20.16 0 0 0-5.866-4.225c-3.706-1.89-7.799-1.571-11.72-.032a16.847 16.847 0 0 0-2.862 1.502l-2.863 1.503a6.228 6.228 0 0 1-2.8.908c-.596-.063-1.354.008-1.948-.055a19.169 19.169 0 0 0 11.663 1.982Z"/></g><g data-name="Group 454"><path data-name="Path 91" d="M519.045 230.017a19.865 19.865 0 0 1-2.26 8.628 13.914 13.914 0 0 0 8.15-11.766 37.912 37.912 0 0 0-1.484-10.221 14.528 14.528 0 0 1 .284-8.389 23.163 23.163 0 0 0-4.638 8.38c-.632 4.59.119 8.877-.052 13.368Z"/><path data-name="Path 92" d="M518.216 229.329c.265-5.382-1.222-11.249 1.718-16.35a20.623 20.623 0 0 0-5.318 4.852c-2.62 3.482-3.028 7.342-2.406 11.47.203.923.54 2.008.877 3.098s.673 2.174.877 3.097a6.691 6.691 0 0 1 .28 3.031c-.063.595-.29 1.322-.351 1.917a17.753 17.753 0 0 0 4.323-11.115Z"/></g><g data-name="Group 455"><path data-name="Path 93" d="M534.673 232.859a14.974 14.974 0 0 1-5.795 2.247 9.226 9.226 0 0 0 9.802-.322 26.008 26.008 0 0 0 5.021-4.882c1.344-1.36 2.855-2.856 4.701-3.262a13.383 13.383 0 0 0-6.403.833c-2.694 1.366-4.892 3.689-7.326 5.386Z"/><path data-name="Path 94" d="M534.605 232.102c3.086-2.227 5.81-5.25 9.605-5.602a13.841 13.841 0 0 0-4.855-.958c-2.838-.147-5.241 1.252-7.273 3.444a7.509 7.509 0 0 0-1.38 1.65c-.36.563-.883 1.26-1.243 1.823a6.516 6.516 0 0 1-1.509 1.493 3 3 0 0 1-1.251.47c.029-.293 4.026.278 7.906-2.32Z"/></g><g data-name="Group 456"><path data-name="Path 95" d="M370.035 299.554a40.751 40.751 0 0 1-17.4 5.388c8.582 5.56 20.176 6.779 29.288 1.575 6.085-3.568 11.137-8.748 16.292-13.465 4.168-3.92 9.065-7.613 14.87-8.505-6.212-.954-13.409-1.11-19.502 1.106-8.894 3.123-15.69 9.17-23.548 13.901Z"/><path data-name="Path 96" d="M370.118 297.312c9.737-5.44 18.334-14.302 30.38-14.539a48.789 48.789 0 0 0-14.284-4.206c-8.62-.906-16.192 2.506-22.496 8.155a34.777 34.777 0 0 0-4.56 4.78c-1.376 1.658-2.917 3.45-4.294 5.108a15 15 0 0 1-4.896 3.693c-1.251.47-2.502.94-3.59 1.276-.165.132 11.598 2.574 23.74-4.267Z"/></g><g data-name="Group 457"><path data-name="Path 97" d="M434.557 349.012a40.053 40.053 0 0 1-18.756-1.668c6.526 9.401 17.619 15.376 28.003 13.765 7.189-1.197 13.54-4.437 20.126-7.05 5.205-2.312 11.232-3.928 17.115-2.71-5.93-3.629-12.814-6.757-19.251-6.983-9.41-.54-18.068 3.208-27.237 4.646Z"/><path data-name="Path 98" d="M435.401 346.7c11.146-1.683 22.535-7.098 34.052-2.283a49.361 49.361 0 0 0-12.604-10.19c-8.078-4.603-16.395-4.128-24.53-1.076a35.846 35.846 0 0 0-5.89 3.138c-2.074 1.135-3.849 2.3-5.922 3.435-1.908 1-3.652 1.87-5.897 1.784a36.8 36.8 0 0 1-3.896-.109c-.133-.164 10.64 7.43 24.687 5.302Z"/></g><g data-name="Group 458"><path data-name="Path 99" d="M872.8 754.521a45.178 45.178 0 0 1-20.472-1.1c6.854 9.136 18.706 15.04 30.212 12.793 7.812-1.436 15.088-4.876 22.33-8.02 5.827-2.542 12.484-4.398 18.83-3.281-6.257-3.364-13.603-6.389-20.964-6.412-10.396.26-19.978 4.212-29.936 6.02Z"/><path data-name="Path 100" d="M873.808 752.072c12.234-2.02 24.874-7.904 37.508-3.722a46.335 46.335 0 0 0-13.393-9.822c-8.708-4.372-17.945-3.69-26.902.028a44.223 44.223 0 0 0-6.649 3.208c-2.237 1.267-4.31 2.402-6.549 3.671a13.87 13.87 0 0 1-6.523 2.02 21.335 21.335 0 0 1-4.357-.007c-.161.13 11.4 7.357 26.865 4.624Z"/></g><g data-name="Group 459"><path data-name="Path 101" d="M843.63 800.443a44.372 44.372 0 0 1-1.904-20.487c-8.072 8.168-12.088 20.667-8.295 31.737 2.522 7.48 7.08 14.118 11.016 20.993 3.334 5.46 6.274 11.777 6.05 18.218 2.502-6.65 4.371-14.418 3.173-21.606-1.48-10.224-6.715-19.039-10.04-28.855Z"/><path data-name="Path 102" d="M846.11 801.154c3.866 11.826 11.66 23.465 9.095 36.42a49.99 49.99 0 0 0 7.867-14.802c3.08-9.294.88-18.39-3.821-26.548a43.431 43.431 0 0 0-4.329-6.017c-1.596-1.971-3.192-3.942-4.624-6.047a18.506 18.506 0 0 1-3.107-6.186 36.748 36.748 0 0 1-.584-4.417c.132.164-5.24 12.673-.497 27.597Z"/></g><g data-name="Group 460"><path data-name="Path 103" d="M728.295 838.36a47.312 47.312 0 0 1 2.286-20.349c-9.667 6.197-16.134 17.689-14.811 29.399.971 7.916 3.953 15.292 6.472 22.77 2.082 5.93 3.773 12.718 2.06 19 3.794-6.062 7.25-13.212 7.703-20.377.8-10.434-2.363-20.383-3.71-30.442Z"/><path data-name="Path 104" d="M730.713 839.666c1.394 12.469 6.356 25.312 1.313 37.556a49.594 49.594 0 0 0 10.816-12.838c4.802-8.512 4.714-17.687 1.756-26.714a71.279 71.279 0 0 0-2.88-6.914c-1.103-2.37-2.238-4.443-3.343-6.815a14.573 14.573 0 0 1-1.69-6.79 40.565 40.565 0 0 1 .304-4.325 41.14 41.14 0 0 0-6.276 26.84Z"/></g><g data-name="Group 461"><path data-name="Path 105" d="M882.021 795.46a30.519 30.519 0 0 1-9.848-7.797c.176 6.934 3.78 14.072 10.368 17.168 4.435 2.12 9.16 2.916 13.854 4.01 3.67.837 7.737 2.166 10.428 5.154a28.4 28.4 0 0 0-8.05-10.614c-5.173-3.698-11.323-5.246-16.752-7.92Z"/><path data-name="Path 106" d="M883.306 794.696c6.853 3.425 15.114 4.895 19.809 11.7a30.493 30.493 0 0 0-3.194-9.653c-2.902-5.264-7.705-8.172-13.26-9.658a22.623 22.623 0 0 0-4.428-.766c-1.487-.156-2.972-.312-4.592-.633a10.549 10.549 0 0 1-4.068-1.33l-2.088-1.571a26.03 26.03 0 0 0 11.821 11.911Z"/></g><g data-name="Group 462"><path data-name="Path 107" d="M856.087 580.406a33.655 33.655 0 0 1-13.135-5.137c2.358 7.613 8.765 13.843 16.725 15.28 5.32.86 10.795.232 16.24-.097 4.388-.29 9.175-.088 13.017 1.97-3.223-3.646-7.503-7.25-12.13-8.942-6.683-2.2-13.778-1.894-20.717-3.074Z"/><path data-name="Path 108" d="M857.271 579.175c8.425 1.336 17.992.388 25.22 5.956a29.557 29.557 0 0 0-6.526-9.401c-4.749-4.857-10.897-6.406-17.398-6.037a31.267 31.267 0 0 0-5.177.659l-5.045.822a12.247 12.247 0 0 1-4.655-.039 15.762 15.762 0 0 1-2.745-1.04c-.168.136 5.685 7.364 16.326 9.08Z"/></g><g data-name="Group 463"><path data-name="Path 109" d="M866.443 523.34a32.173 32.173 0 0 1 5.997-12.744c-7.712 1.894-14.376 8.106-16.078 15.738-1.156 5.289-.83 10.735-.662 16.31-.008 4.358-.508 9.113-2.861 12.923 3.778-3.059 7.649-7.01 9.635-11.61 2.5-6.647 2.655-13.844 3.969-20.618Z"/><path data-name="Path 110" d="M867.672 524.52c-1.931 8.362-1.447 18.028-7.412 24.766a34.6 34.6 0 0 0 9.798-6.034c5.123-4.42 6.971-10.534 7.061-17.14a30.2 30.2 0 0 0-.36-5.147 50.567 50.567 0 0 1-.658-5.178 12.1 12.1 0 0 1 .335-4.624c.39-.86.65-1.885 1.04-2.745.135.166-7.491 5.526-9.804 16.102Z"/></g><g data-name="Group 464"><path data-name="Path 111" d="M468.934 806.895a44.652 44.652 0 0 1-19.705-5.532c4.617 10.403 14.865 18.693 26.52 19.315 7.924.382 15.766-1.345 23.583-2.78 6.27-.998 13.093-1.629 19.15.81-5.375-4.623-11.939-9.369-18.846-10.847-10.148-2.114-20.536-.5-30.702-.966Z"/><path data-name="Path 112" d="M470.503 804.803c12.548.718 26.095-2.366 37.364 4.826a44.46 44.46 0 0 0-11.003-12.58c-7.628-6.06-16.647-7.459-26.279-5.915a39.449 39.449 0 0 0-7.25 1.793c-2.34.806-4.81 1.45-7.282 2.09a17.99 17.99 0 0 1-6.826.637 38.579 38.579 0 0 1-4.263-.9c.326-.264 9.855 9.152 25.54 10.05Z"/></g><g data-name="Group 465"><path data-name="Path 113" d="M497.6 742.885a33.006 33.006 0 0 1-1.442-14.878c-5.874 5.844-8.79 15.005-6.2 23.24 1.818 5.606 5.078 10.3 8.012 15.27 2.434 4.012 4.51 8.586 4.467 13.239 1.72-4.928 3.205-10.482 2.415-15.826-1-7.616-4.835-14.029-7.253-21.045Z"/><path data-name="Path 114" d="M499.351 743.369c2.692 8.698 8.42 17.115 6.661 26.696a31.179 31.179 0 0 0 5.645-10.826c2.208-6.677.648-13.306-2.921-19.39a44.635 44.635 0 0 0-3.133-4.541 47.774 47.774 0 0 1-3.297-4.407c-.9-1.447-1.964-2.761-2.238-4.443a19.3 19.3 0 0 1-.407-3.192 32.847 32.847 0 0 0-.31 20.103Z"/></g><g data-name="Group 466"><path data-name="Path 115" d="M1316.447 864.112a34.916 34.916 0 0 1 11.497-9.31c-8.096-1.602-17.225.894-22.434 7.56-3.636 4.576-5.85 9.904-8.328 14.903-2.09 4.136-4.637 8.378-8.65 10.811 5.078-1.12 10.545-3.1 14.354-6.455 5.616-4.819 9.041-11.672 13.561-17.51Z"/><path data-name="Path 116" d="M1317.152 865.99c-5.703 7.063-9.673 16.264-18.468 19.844a39.353 39.353 0 0 0 11.975-.995c6.822-1.988 11.377-6.767 14.58-12.893a32.654 32.654 0 0 0 2.017-4.897 33.637 33.637 0 0 1 1.885-5.062 12.337 12.337 0 0 1 2.55-4.24 15.993 15.993 0 0 1 2.33-2.16 28.055 28.055 0 0 0-16.87 10.403Z"/></g></g></svg>