<svg xmlns="http://www.w3.org/2000/svg" viewBox="0 0 170.47 147.1"><g data-name="Lager 2"><path d="M123.21 0h-.15l-15.37 62.4S100.79 57 93 50.7l8.23-7.5c18.29-16-2.31-38.77-16.49-25.09-14.14-13.63-34.73 9-16.58 25l4.63 4.23 8-6.41-4.1-3.29C63.53 27.29 76.5 16.88 83.87 28c.29.39.82 1.17.88 1.26a12 12 0 0 1 .89-1.26c7.37-11.07 20.41-.66 7.17 9.68-2.23 1.81-17 13.7-17 13.7L61.9 62.4 46.45 0H35.22l20.29 81.38s16.27-13 29.24-23.74C97.72 68.46 114 81.42 114 81.42L134.36 0ZM62.76 144.72l-4.84-11.05h-2.08l5.92 13.43h1.88l5.89-13.43h-1.9l-4.87 11.05zm-25.53-3.6h6.71v-1.65h-6.71v-4.13h7.53v-1.67h-9.47v13.43h9.77v-1.67h-7.83v-4.31zm45.02 0h6.72v-1.65h-6.72v-4.13h7.54v-1.67h-9.48v13.43h9.77v-1.67h-7.83v-4.31zm29.72 2.58-8.07-10.03h-1.58v13.43h1.93v-10l8.04 10h1.59v-13.43h-1.91v10.03zm12.1-8.36h4.6v11.76h1.91v-11.76h4.6v-1.67h-11.11v1.67zM22.3 118.84h3.88l7.43-22.24h-3.9l-5.53 16.32-5.51-16.32h-3.49l-5.62 16.25L4.17 96.6H0l7.43 22.24h3.97l5.44-15.96 5.46 15.96zM45.51 96.6h-3.65l-10.13 22.24h4.19l2.27-5.33h10.65l2.27 5.33h4.28Zm2 13.6h-7.67l3.83-8.72Zm26.87 5.01H62.87V96.6h-4.01v22.24h15.52v-3.63zm23.55-2.61a5.77 5.77 0 0 0-1.18-3.71 5.47 5.47 0 0 0-2.27-1.68 6 6 0 0 0 1.38-1.47 5.71 5.71 0 0 0 .93-3.18A5.2 5.2 0 0 0 94.53 98a10 10 0 0 0-5.94-1.54h-9.93v22.23h10.63a10.75 10.75 0 0 0 6.35-1.58 5.42 5.42 0 0 0 2.29-4.51Zm-4.06-.25a2.47 2.47 0 0 1-1.06 2.27 6.67 6.67 0 0 1-3.61.77h-6.52v-6h6.5c4.69-.03 4.69 2.24 4.69 2.96Zm-11.19-6.5V100h5.71a5.82 5.82 0 0 1 3.33.79 2.69 2.69 0 0 1 .47 3.78 2.37 2.37 0 0 1-.47.48 5.88 5.88 0 0 1-3.33.77Zm35.76-8.02a13 13 0 0 0-12.06 0 11 11 0 0 0-4.24 4.08 11.75 11.75 0 0 0 0 11.62 11 11 0 0 0 4.24 4.08 13 13 0 0 0 12.06 0 10.86 10.86 0 0 0 4.21-4.08 11.75 11.75 0 0 0 0-11.65 10.72 10.72 0 0 0-4.21-4.05Zm1.67 9.88a7.66 7.66 0 0 1-1 3.92 7.41 7.41 0 0 1-2.76 2.74 8 8 0 0 1-4 1 8.25 8.25 0 0 1-4-1 7.34 7.34 0 0 1-2.79-2.74 7.9 7.9 0 0 1-1-3.94 7.75 7.75 0 0 1 1-3.92 7.42 7.42 0 0 1 2.79-2.77 8.25 8.25 0 0 1 4-1 8.1 8.1 0 0 1 4 1 7.37 7.37 0 0 1 3.71 6.71Zm24.53 1.29a7.77 7.77 0 0 0 1.29-4.53 7.19 7.19 0 0 0-2.54-5.81 10.39 10.39 0 0 0-6.8-2.08h-8.79v22.23h4v-6.44h5.87l4.53 6.51h4.53l-5.21-7.41a7.11 7.11 0 0 0 3.12-2.47Zm-2.72-4.53a3.77 3.77 0 0 1-1.34 3.17 6.18 6.18 0 0 1-4.1 1.13h-4.67v-8.47h4.67a6.32 6.32 0 0 1 4.1 1.13 3.79 3.79 0 0 1 1.34 3.06ZM164 107.1v3.49h2.27v3.67a8.77 8.77 0 0 1-4.53 1.13 8.27 8.27 0 0 1-4.08-1 7.49 7.49 0 0 1-2.88-2.76 8.14 8.14 0 0 1 0-7.89 7.31 7.31 0 0 1 2.83-2.74 8.71 8.71 0 0 1 4.15-1 8 8 0 0 1 5.82 2.27l.34.32 2.54-2.54-.29-.34a10 10 0 0 0-3.72-2.59 13.48 13.48 0 0 0-4.83-.86 12.7 12.7 0 0 0-6.07 1.45 10.79 10.79 0 0 0-4.26 4.08 11.36 11.36 0 0 0-1.54 5.83 11 11 0 0 0 5.78 9.9 12.29 12.29 0 0 0 6 1.47 14.22 14.22 0 0 0 4.53-.72 12 12 0 0 0 3.87-2.11l.18-.13v-8.93Z" style="fill:#fff" data-name="Lager 1"/></g></svg>